<?xml version="1.0" encoding="UTF-8" standalone="no"?>
<!-- Created with Inkscape (http://www.inkscape.org/) -->

<svg
   xmlns:dc="http://purl.org/dc/elements/1.1/"
   xmlns:cc="http://creativecommons.org/ns#"
   xmlns:rdf="http://www.w3.org/1999/02/22-rdf-syntax-ns#"
   xmlns:svg="http://www.w3.org/2000/svg"
   xmlns="http://www.w3.org/2000/svg"
   xmlns:sodipodi="http://sodipodi.sourceforge.net/DTD/sodipodi-0.dtd"
   xmlns:inkscape="http://www.inkscape.org/namespaces/inkscape"
   width="30mm"
   height="30mm"
   viewBox="0 0 30 30"
   version="1.1"
   id="svg1536"
   inkscape:version="0.92.2 5c3e80d, 2017-08-06"
   sodipodi:docname="logoVk.svg">
  <defs
     id="defs1530">
    <style
       type="text/css"
       id="style1363"><![CDATA[
    .fil1 {fill:#373435}
    .fil0 {fill:#373435;fill-rule:nonzero}
   ]]></style>
    <style
       type="text/css"
       id="style1363-7"><![CDATA[
    .fil1 {fill:#373435}
    .fil0 {fill:#373435;fill-rule:nonzero}
   ]]></style>
    <style
       type="text/css"
       id="style1363-5"><![CDATA[
    .fil1 {fill:#373435}
    .fil0 {fill:#373435;fill-rule:nonzero}
   ]]></style>
    <style
       type="text/css"
       id="style1363-9"><![CDATA[
    .fil1 {fill:#373435}
    .fil0 {fill:#373435;fill-rule:nonzero}
   ]]></style>
    <style
       type="text/css"
       id="style1363-70"><![CDATA[
    .fil1 {fill:#373435}
    .fil0 {fill:#373435;fill-rule:nonzero}
   ]]></style>
    <style
       type="text/css"
       id="style1363-6"><![CDATA[
    .fil1 {fill:#373435}
    .fil0 {fill:#373435;fill-rule:nonzero}
   ]]></style>
    <style
       type="text/css"
       id="style1363-2"><![CDATA[
    .fil1 {fill:#373435}
    .fil0 {fill:#373435;fill-rule:nonzero}
   ]]></style>
    <style
       type="text/css"
       id="style1363-8"><![CDATA[
    .fil1 {fill:#373435}
    .fil0 {fill:#373435;fill-rule:nonzero}
   ]]></style>
    <style
       type="text/css"
       id="style1363-20"><![CDATA[
    .fil1 {fill:#373435}
    .fil0 {fill:#373435;fill-rule:nonzero}
   ]]></style>
    <style
       type="text/css"
       id="style1363-75"><![CDATA[
    .fil1 {fill:#373435}
    .fil0 {fill:#373435;fill-rule:nonzero}
   ]]></style>
    <style
       type="text/css"
       id="style1363-28"><![CDATA[
    .fil1 {fill:#373435}
    .fil0 {fill:#373435;fill-rule:nonzero}
   ]]></style>
    <style
       type="text/css"
       id="style1363-3"><![CDATA[
    .fil1 {fill:#373435}
    .fil0 {fill:#373435;fill-rule:nonzero}
   ]]></style>
    <style
       type="text/css"
       id="style1363-29"><![CDATA[
    .fil1 {fill:#373435}
    .fil0 {fill:#373435;fill-rule:nonzero}
   ]]></style>
    <style
       type="text/css"
       id="style1363-94"><![CDATA[
    .fil1 {fill:#373435}
    .fil0 {fill:#373435;fill-rule:nonzero}
   ]]></style>
    <style
       type="text/css"
       id="style1363-4"><![CDATA[
    .fil1 {fill:#373435}
    .fil0 {fill:#373435;fill-rule:nonzero}
   ]]></style>
    <style
       type="text/css"
       id="style1363-36"><![CDATA[
    .fil1 {fill:#373435}
    .fil0 {fill:#373435;fill-rule:nonzero}
   ]]></style>
    <style
       type="text/css"
       id="style1363-63"><![CDATA[
    .fil1 {fill:#373435}
    .fil0 {fill:#373435;fill-rule:nonzero}
   ]]></style>
    <style
       type="text/css"
       id="style1363-61"><![CDATA[
    .fil1 {fill:#373435}
    .fil0 {fill:#373435;fill-rule:nonzero}
   ]]></style>
    <style
       type="text/css"
       id="style1363-47"><![CDATA[
    .fil1 {fill:#373435}
    .fil0 {fill:#373435;fill-rule:nonzero}
   ]]></style>
    <style
       type="text/css"
       id="style1363-69"><![CDATA[
    .fil1 {fill:#373435}
    .fil0 {fill:#373435;fill-rule:nonzero}
   ]]></style>
    <style
       type="text/css"
       id="style1363-45"><![CDATA[
    .fil1 {fill:#373435}
    .fil0 {fill:#373435;fill-rule:nonzero}
   ]]></style>
    <style
       type="text/css"
       id="style1363-474"><![CDATA[
    .fil1 {fill:#373435}
    .fil0 {fill:#373435;fill-rule:nonzero}
   ]]></style>
  </defs>
  <sodipodi:namedview
     id="base"
     pagecolor="#ffffff"
     bordercolor="#666666"
     borderopacity="1.0"
     inkscape:pageopacity="0.0"
     inkscape:pageshadow="2"
     inkscape:zoom="1.1619322"
     inkscape:cx="193.9162"
     inkscape:cy="-35.251037"
     inkscape:document-units="mm"
     inkscape:current-layer="layer1"
     showgrid="false"
     inkscape:window-width="1366"
     inkscape:window-height="731"
     inkscape:window-x="0"
     inkscape:window-y="18"
     inkscape:window-maximized="0" />
  <metadata
     id="metadata1533">
    <rdf:RDF>
      <cc:Work
         rdf:about="">
        <dc:format>image/svg+xml</dc:format>
        <dc:type
           rdf:resource="http://purl.org/dc/dcmitype/StillImage" />
        <dc:title></dc:title>
      </cc:Work>
    </rdf:RDF>
  </metadata>
  <g
     inkscape:label="Layer 1"
     inkscape:groupmode="layer"
     id="layer1"
     transform="translate(0,-267)">
    <g
       id="layer1-3"
       inkscape:label="Layer 1"
       transform="translate(-64.315961,134.27081)">
      <ellipse
         ry="0.32679477"
         rx="6.7809911"
         cy="197.32761"
         cx="229.49161"
         id="path1701"
         style="opacity:1;fill:#ffffff;fill-opacity:1;fill-rule:nonzero;stroke:none;stroke-width:0.26458332" />
      <g
         transform="translate(-11.419828,-40.218842)"
         id="g2052">
        <path
           inkscape:connector-curvature="0"
           d="m 92.689819,194.29635 c 0.08356,-0.1352 0.207321,-0.61527 0.275027,-1.06684 0.144698,-0.96499 0.371892,-1.44782 0.681261,-1.44782 0.122506,0 0.744217,0.53314 1.381601,1.18476 1.642035,1.6787 2.127603,1.86323 4.630032,1.75951 2.20494,-0.0914 2.64812,-0.22873 2.80925,-0.87067 0.16276,-0.64853 -0.34203,-1.43029 -2.09075,-3.23793 -0.87612,-0.90563 -1.59295,-1.76947 -1.59295,-1.91964 0,-0.15015 0.65689,-1.14961 1.45977,-2.22099 1.42533,-1.90201 2.29573,-3.43216 2.29926,-4.04205 0.004,-0.66519 -0.67902,-0.86081 -3.00478,-0.86081 -1.215752,0 -2.363561,0.082 -2.550686,0.18208 -0.187109,0.10014 -0.698804,0.92617 -1.137082,1.83562 -0.899091,1.86566 -2.156023,3.71301 -2.526321,3.71301 -0.394566,0 -0.468215,-0.53974 -0.412645,-3.02413 0.04982,-2.22689 0.03309,-2.35586 -0.355166,-2.74548 -0.370761,-0.37203 -0.596371,-0.41351 -2.507181,-0.46105 -1.736844,-0.0431 -2.208098,0.004 -2.726563,0.26863 -0.79653,0.40775 -0.941126,1.05014 -0.291933,1.29696 0.678729,0.25805 0.829452,0.72294 0.826446,2.54905 -0.0027,1.75356 -0.141368,2.23648 -0.591794,2.06363 -0.407819,-0.15649 -1.686284,-2.12524 -2.48008,-3.81916 -0.385698,-0.82307 -0.853751,-1.57809 -1.040109,-1.67782 -0.444572,-0.23793 -4.047041,-0.23469 -4.493108,0.004 -0.588647,0.31504 -0.403805,1.10039 0.825791,3.50858 1.48016,2.89893 3.246875,5.56038 4.568184,6.88169 1.25937,1.25937 3.2016,2.26699 4.736078,2.45705 1.380717,0.17101 3.111314,0.008 3.308448,-0.31022 z m -1.954431,-21.39189 a 15,15 0 0 0 -14.999599,15.00012 15,15 0 0 0 14.999599,15.00011 15,15 0 0 0 15.000122,-15.00011 15,15 0 0 0 -15.000122,-15.00012 z m 0,1.00045 a 14,14 0 0 1 14.000182,13.99967 14,14 0 0 1 -14.000182,14.00018 14,14 0 0 1 -13.999662,-14.00018 14,14 0 0 1 13.999662,-13.99967 z"
           style="fill:#c6c6c6;stroke-width:1"
           id="path2056" />
      </g>
    </g>
  </g>
</svg>
